<?xml version="1.0" standalone="no"?>
<!DOCTYPE svg PUBLIC "-//W3C//DTD SVG 20010904//EN"
 "http://www.w3.org/TR/2001/REC-SVG-20010904/DTD/svg10.dtd">
<svg version="1.0" xmlns="http://www.w3.org/2000/svg"
 width="534.000000pt" height="534.000000pt" viewBox="0 0 534.000000 534.000000"
 preserveAspectRatio="xMidYMid meet">
<metadata>
Created by potrace 1.11, written by Peter Selinger 2001-2013
</metadata>
<g transform="translate(0.000000,534.000000) scale(0.100000,-0.100000)"
fill="#000000" stroke="none">
<path d="M2780 5173 c-243 -19 -438 -89 -699 -250 -536 -331 -961 -735 -1264
-1202 -350 -540 -547 -1168 -586 -1868 -18 -337 21 -562 136 -785 102 -198
250 -354 453 -477 110 -67 166 -84 270 -84 100 1 124 10 290 120 336 222 581
506 703 813 103 258 150 556 167 1055 10 308 25 458 64 640 78 372 228 692
463 985 72 89 271 286 373 368 156 126 221 186 348 321 l122 129 -68 41 c-192
115 -423 184 -657 193 -44 2 -96 2 -115 1z"/>
<path d="M3937 4710 c-55 -17 -340 -261 -542 -465 -438 -442 -672 -877 -750
-1395 -19 -124 -22 -442 -6 -570 46 -367 -3 -685 -155 -995 -154 -316 -342
-506 -876 -889 -76 -54 -138 -101 -138 -105 0 -23 279 -78 460 -92 381 -28
685 56 1085 298 609 370 1059 851 1346 1441 227 468 363 1046 360 1540 -3 438
-138 794 -411 1076 -105 108 -140 131 -239 152 -74 15 -94 16 -134 4z"/>
</g>
</svg>
